# xmcd
#
# Track frame offsets:
# 183
# 11273
# 30293
# 44920
# 52405
# 65518
# 80875
# 95358
# 114438
# 131213
# 143078
#
# Disc length: 2137 seconds
#
#
# Revision: 0
# Processed by: cddbd v1.5.2PL0 Copyright (c) Steve Scherf et al.
# Submitted via: Nero 7, 11, 10, 0 
#
DISCID=9c08570b
DTITLE=Cub Koda And The Points - Cub Koda And The Points
DYEAR=1991
DGENRE=Blues
TTITLE0=Welcome To My Job
TTITLE1=Gettin' Wild Tonight
TTITLE2=Jail Bait
TTITLE3=Tight Jeans
TTITLE4=Cadillac Jack
TTITLE5=Cadillac Walk
TTITLE6=Pound It Out
TTITLE7=Crazy People
TTITLE8=Sneakers On A Rooster
TTITLE9=Ducktail
TTITLE10=The Ballad Of Guitar Johnny
EXTD=
EXTT0=Welcome To My Job
EXTT1=Gettin' Wild Tonight
EXTT2=Jail Bait
EXTT3=Tight Jeans
EXTT4=Cadillac Jack
EXTT5=Cadillac Walk
EXTT6=Pound It Out
EXTT7=Crazy People
EXTT8=Sneakers On A Rooster
EXTT9=Ducktail
EXTT10=The Ballad Of Guitar Johnny
PLAYORDER=
